Storyline

August, 1963; Alice, 14, an only child, and physically well developed, is home for vacation. She's moody, silent, keeps a diary, and explores tactile sensations with broken eggs, candle wax, ear wax, vomit, urine, blood, and, perhaps, if the summer goes in one very possible direction, semen. Without her underpants, she walks about, rides her bike, and sits on the shore as the tide comes in. She drifts to her father's sawmill and makes eyes at Jim, a 20-something hand with a lean body and a model's face. What will Jim do, and does Alice want to do more than stare and fantasize? Meanwhile, pop music fills the air and the TV screen, and Alice's parents have their own drama.


The imdb runtime for this is wrong dont worry this is uncut


Format                                   : MPEG-4
Format profile                           : Base Media / Version 2
Codec ID                                 : mp42
File size                                : 1.12 GiB
Duration                                 : 1h 29mn
Overall bit rate mode                    : Variable
Overall bit rate                         : 1 786 Kbps
Encoded date                             : UTC 2013-05-31 02:01:47
Tagged date                              : UTC 2013-05-31 02:45:44
Writing application                      : HandBrake 0.9.9 2013051800

Video
ID                                       : 1
Format                                   : AVC
Format/Info                              : Advanced Video Codec
Format profile                           : Main@L4.0
Format settings, CABAC                   : Yes
Format settings, ReFrames                : 4 frames
Codec ID                                 : avc1
Codec ID/Info                            : Advanced Video Coding
Duration                                 : 1h 29mn
Bit rate mode                            : Variable
Bit rate                                 : 1 620 Kbps
Width                                    : 720 pixels
Height                                   : 490 pixels
Display aspect ratio                     : 16:9
Frame rate mode                          : Constant
Frame rate                               : 29.970 fps
Color space                              : YUV
Chroma subsampling                       : 4:2:0
Bit depth                                : 8 bits
Scan type                                : Progressive
Bits/(Pixel*Frame)                       : 0.153
Stream size                              : 1.01 GiB (91%)
Writing library                          : x264 core 130 r2273 b3065e6
Encoding settings                        : cabac=1 / ref=2 / deblock=1:0:0 / 
Encoded date                             : UTC 2013-05-31 02:01:47
Tagged date                              : UTC 2013-05-31 02:45:44
Color primaries                          : BT.601 NTSC
Transfer characteristics                 : BT.709
Matrix coefficients                      : BT.601

Audio
ID                                       : 2
Format                                   : AAC
Format/Info                              : Advanced Audio Codec
Format profile                           : LC
Codec ID                                 : 40
Duration                                 : 1h 29mn
Bit rate mode                            : Variable
Bit rate                                 : 160 Kbps
Maximum bit rate                         : 198 Kbps
Channel(s)                               : 2 channels
Channel positions                        : Front: L R
Sampling rate                            : 48.0 KHz
Compression mode                         : Lossy
Delay relative to video                  : 67ms
Stream size                              : 102 MiB (9%)
Encoded date                             : UTC 2013-05-31 02:01:47
Tagged date                              : UTC 2013-05-31 02:45:43

Text
ID                                       : 3
Format                                   : mp4s
Codec ID                                 : E0
Duration                                 : 1h 26mn
Bit rate mode                            : Variable
Bit rate                                 : 1 923 bps
Maximum bit rate                         : 4 091 Mbps
Delay relative to video                  : 67ms
Stream size                              : 1.20 MiB (0%)
Language                                 : English
Encoded date                             : UTC 2013-05-31 02:01:47
Tagged date                              : UTC 2013-05-31 02:45:13\

 
http://www.imdb.com/title/tt0135024/



ENGLISH SUBTITLES INCULDED: They are built into the file

